<?xml version="1.0"?>
<svg xmlns="http://www.w3.org/2000/svg" xmlns:xlink="http://www.w3.org/1999/xlink" xmlns:svgjs="http://svgjs.com/svgjs" version="1.1" width="24" height="24" x="0" y="0" viewBox="0 0 512 512" style="enable-background:new 0 0 512 512" xml:space="preserve" class=""><g><g xmlns="http://www.w3.org/2000/svg"><path d="m256 316.978c-4.142 0-7.5 3.358-7.5 7.5v18.446c0 4.142 3.358 7.5 7.5 7.5s7.5-3.358 7.5-7.5v-18.446c0-4.143-3.358-7.5-7.5-7.5zm-46.166 116.348c-4.142 0-7.5 3.358-7.5 7.5s3.358 7.5 7.5 7.5 7.5-3.358 7.5-7.5-3.358-7.5-7.5-7.5zm28.187-21.716c-4.142 0-7.5 3.358-7.5 7.5s3.358 7.5 7.5 7.5 7.5-3.358 7.5-7.5-3.358-7.5-7.5-7.5zm63.56-106.899c16.532 8.682 30.226 21.818 39.602 37.988 2.099 3.62 6.719 4.774 10.25 2.727 3.583-2.078 4.804-6.667 2.727-10.25-10.795-18.62-26.565-33.747-45.604-43.745-3.67-1.927-8.202-.515-10.127 3.153-1.928 3.667-.516 8.201 3.152 10.127zm97.801-184.593v-67.118h16.118c7.995 0 14.5-6.505 14.5-14.5v-24c0-7.995-6.505-14.5-14.5-14.5h-319c-7.995 0-14.5 6.505-14.5 14.5v24c0 7.995 6.505 14.5 14.5 14.5h16.118v67.118c0 63.054 40.913 116.731 97.586 135.882-56.673 19.151-97.586 72.828-97.586 135.882v67.118h-16.118c-7.995 0-14.5 6.505-14.5 14.5v24c0 7.995 6.505 14.5 14.5 14.5h319c7.995 0 14.5-6.505 14.5-14.5v-24c0-7.995-6.505-14.5-14.5-14.5h-16.118v-67.118c0-63.054-40.913-116.731-97.586-135.882 56.673-19.151 97.586-72.828 97.586-135.882zm15.618 353.882v23h-318v-23zm-30.618-82.118v60.489l-41.233-27.896c-3.431-2.321-8.093-1.421-10.415 2.009-2.321 3.431-1.421 8.093 2.009 10.415l32.67 22.101h-222.826l98.804-66.847c7.659-5.182 17.558-5.182 25.217 0l41.492 28.072c3.43 2.322 8.094 1.422 10.415-2.009s1.421-8.093-2.009-10.415l-41.492-28.072c-12.766-8.637-29.262-8.636-42.027 0l-107.369 72.641v-60.489c0-68.272 53.57-124.26 120.882-128.157v32.659c0 4.142 3.358 7.5 7.5 7.5s7.5-3.358 7.5-7.5v-32.659c67.312 3.898 120.882 59.886 120.882 128.158zm-128.382-143.382c-70.79 0-128.382-57.592-128.382-128.382v-67.118h34.537c4.142 0 7.5-3.358 7.5-7.5s-3.358-7.5-7.5-7.5h-65.155v-23h318v23h-217.729c-4.142 0-7.5 3.358-7.5 7.5s3.358 7.5 7.5 7.5h187.112v67.118c-.001 70.79-57.593 128.382-128.383 128.382zm0-179.095c-43.84 0-81.345 37.695-81.345 81.345 0 44.378 37.752 81.345 81.345 81.345 44.406 0 81.345-36.836 81.345-81.345 0-44.262-36.022-81.345-81.345-81.345zm0 15c30.538 0 56.308 20.746 63.996 48.88-10.721 2.707-21.034.393-26.172-3.83-1.796-1.476-3.112-3.319-4.505-5.27-2.788-3.903-6.257-8.761-13.581-10.183-7.221-1.4-12.748 1.72-16.404 3.786-.812.459-1.944 1.099-2.681 1.41-1.567-2.355-2.822-10.403-3.671-15.854-.963-6.182-2.1-12.647-3.393-18.624 2.11-.203 4.248-.315 6.411-.315zm-44.585 91.582c-.342 4.836-3.464 10.48-8.075 15.053-8.574-11.179-13.685-25.146-13.685-40.29 0-11.942 3.188-23.147 8.733-32.837 3.558 3.224 6.144 6.919 7.266 10.54.875 2.824.691 5.141.387 8.979-.395 4.98-.935 11.801 1.068 22.26 1.189 6.206 2.477 9.65 3.417 12.165.842 2.247.993 2.652.889 4.13zm44.585 41.108c-2.166 0-4.306-.112-6.42-.316 5.232-4.534 10.449-10.592 14.033-18.757 2.958-6.736 3.895-12.834 4.58-17.287.317-2.066.746-4.849 1.215-5.798.912-.253 5.45-.426 19.876 12.736 2.887 2.634 7.644 6.975 11.716 11.77-11.834 10.946-27.646 17.652-45 17.652zm54.892-29.126c-4.247-4.756-8.671-8.798-11.497-11.377-7.622-6.954-23.481-21.422-36.62-15.128-7.335 3.515-8.436 10.675-9.408 16.991-.62 4.033-1.323 8.604-3.489 13.537-4.222 9.618-11.674 15.397-19.497 19.952-6.057-2.545-11.659-5.962-16.648-10.096 7.284-7.154 12.039-16.241 12.644-24.804.334-4.734-.751-7.636-1.801-10.443-.795-2.125-1.784-4.771-2.734-9.731-1.623-8.471-1.211-13.668-.848-18.254.352-4.438.715-9.028-1.012-14.604-2.055-6.631-6.539-13.006-12.693-18.245 7.484-8.098 16.956-14.322 27.632-17.91 1.235 5.704 2.319 11.894 3.239 17.796 2.076 13.323 3.869 24.828 13.89 28.056 6.112 1.968 11.055-.824 14.664-2.864 3.037-1.716 4.54-2.435 6.166-2.119 1.235.239 1.868.864 4.232 4.175 1.72 2.409 3.861 5.406 7.187 8.14 6.756 5.554 16.255 8.427 26.265 8.427 3.872 0 7.82-.446 11.716-1.317.557 14.469-3.701 28.569-11.388 39.818z" fill="#737f92" data-original="#000000" style="" class=""/></g></g></svg>
