<?xml version="1.0"?>
<svg xmlns="http://www.w3.org/2000/svg" xmlns:xlink="http://www.w3.org/1999/xlink" xmlns:svgjs="http://svgjs.com/svgjs" version="1.1" width="24" height="24" x="0" y="0" viewBox="-40 0 480 480" style="enable-background:new 0 0 512 512" xml:space="preserve" class=""><g><path xmlns="http://www.w3.org/2000/svg" d="m184 40h96v16h-96zm0 0" fill="#737f92" data-original="#000000" style="" class=""/><path xmlns="http://www.w3.org/2000/svg" d="m104 80h32v16h-32zm0 0" fill="#737f92" data-original="#000000" style="" class=""/><path xmlns="http://www.w3.org/2000/svg" d="m104 112h32v16h-32zm0 0" fill="#737f92" data-original="#000000" style="" class=""/><path xmlns="http://www.w3.org/2000/svg" d="m104 144h32v16h-32zm0 0" fill="#737f92" data-original="#000000" style="" class=""/><path xmlns="http://www.w3.org/2000/svg" d="m104 176h32v16h-32zm0 0" fill="#737f92" data-original="#000000" style="" class=""/><path xmlns="http://www.w3.org/2000/svg" d="m104 208h32v16h-32zm0 0" fill="#737f92" data-original="#000000" style="" class=""/><path xmlns="http://www.w3.org/2000/svg" d="m160 80h56v16h-56zm0 0" fill="#737f92" data-original="#000000" style="" class=""/><path xmlns="http://www.w3.org/2000/svg" d="m160 112h56v16h-56zm0 0" fill="#737f92" data-original="#000000" style="" class=""/><path xmlns="http://www.w3.org/2000/svg" d="m160 144h56v16h-56zm0 0" fill="#737f92" data-original="#000000" style="" class=""/><path xmlns="http://www.w3.org/2000/svg" d="m160 176h56v16h-56zm0 0" fill="#737f92" data-original="#000000" style="" class=""/><path xmlns="http://www.w3.org/2000/svg" d="m160 208h56v16h-56zm0 0" fill="#737f92" data-original="#000000" style="" class=""/><path xmlns="http://www.w3.org/2000/svg" d="m240 80h120v16h-120zm0 0" fill="#737f92" data-original="#000000" style="" class=""/><path xmlns="http://www.w3.org/2000/svg" d="m240 112h120v16h-120zm0 0" fill="#737f92" data-original="#000000" style="" class=""/><path xmlns="http://www.w3.org/2000/svg" d="m240 144h120v16h-120zm0 0" fill="#737f92" data-original="#000000" style="" class=""/><path xmlns="http://www.w3.org/2000/svg" d="m240 176h120v16h-120zm0 0" fill="#737f92" data-original="#000000" style="" class=""/><path xmlns="http://www.w3.org/2000/svg" d="m240 208h120v16h-120zm0 0" fill="#737f92" data-original="#000000" style="" class=""/><path xmlns="http://www.w3.org/2000/svg" d="m104 240h32v16h-32zm0 0" fill="#737f92" data-original="#000000" style="" class=""/><path xmlns="http://www.w3.org/2000/svg" d="m104 272h32v16h-32zm0 0" fill="#737f92" data-original="#000000" style="" class=""/><path xmlns="http://www.w3.org/2000/svg" d="m104 304h32v16h-32zm0 0" fill="#737f92" data-original="#000000" style="" class=""/><path xmlns="http://www.w3.org/2000/svg" d="m160 240h56v16h-56zm0 0" fill="#737f92" data-original="#000000" style="" class=""/><path xmlns="http://www.w3.org/2000/svg" d="m160 272h56v16h-56zm0 0" fill="#737f92" data-original="#000000" style="" class=""/><path xmlns="http://www.w3.org/2000/svg" d="m160 304h56v16h-56zm0 0" fill="#737f92" data-original="#000000" style="" class=""/><path xmlns="http://www.w3.org/2000/svg" d="m240 240h120v16h-120zm0 0" fill="#737f92" data-original="#000000" style="" class=""/><path xmlns="http://www.w3.org/2000/svg" d="m240 272h120v16h-120zm0 0" fill="#737f92" data-original="#000000" style="" class=""/><path xmlns="http://www.w3.org/2000/svg" d="m376 0h-288c-13.601562 0-24 10.398438-24 24v368h16v-368c0-4.800781 3.199219-8 8-8h288c4.800781 0 8 3.199219 8 8v416c0 13.601562-10.398438 24-24 24s-24-10.398438-24-24v-32h-336v32c0 22.398438 17.601562 40 40 40h320c22.398438 0 40-17.601562 40-40v-416c0-13.601562-10.398438-24-24-24zm-336 464c-13.601562 0-24-10.398438-24-24v-16h304v16c0 8.800781 3.199219 16.800781 8 24zm0 0" fill="#737f92" data-original="#000000" style="" class=""/><path xmlns="http://www.w3.org/2000/svg" d="m104 336h32v16h-32zm0 0" fill="#737f92" data-original="#000000" style="" class=""/><path xmlns="http://www.w3.org/2000/svg" d="m104 368h32v16h-32zm0 0" fill="#737f92" data-original="#000000" style="" class=""/><path xmlns="http://www.w3.org/2000/svg" d="m160 336h56v16h-56zm0 0" fill="#737f92" data-original="#000000" style="" class=""/><path xmlns="http://www.w3.org/2000/svg" d="m160 368h56v16h-56zm0 0" fill="#737f92" data-original="#000000" style="" class=""/><path xmlns="http://www.w3.org/2000/svg" d="m240 304h120v16h-120zm0 0" fill="#737f92" data-original="#000000" style="" class=""/><path xmlns="http://www.w3.org/2000/svg" d="m240 336h120v16h-120zm0 0" fill="#737f92" data-original="#000000" style="" class=""/><path xmlns="http://www.w3.org/2000/svg" d="m240 368h120v16h-120zm0 0" fill="#737f92" data-original="#000000" style="" class=""/></g></svg>
