<svg width="25" height="25" viewBox="0 0 25 25" fill="none" xmlns="http://www.w3.org/2000/svg">
<circle cx="12.5" cy="12.5" r="12.5" fill="#7A7A7A"/>
<path d="M18.5508 9.90625C19.0977 9.49609 19.5898 9.00391 19.9727 8.42969C19.4805 8.64844 18.9062 8.8125 18.332 8.86719C18.9336 8.51172 19.3711 7.96484 19.5898 7.28125C19.043 7.60938 18.4141 7.85547 17.7852 7.99219C17.2383 7.41797 16.5 7.08984 15.6797 7.08984C14.0938 7.08984 12.8086 8.375 12.8086 9.96094C12.8086 10.1797 12.8359 10.3984 12.8906 10.6172C10.5117 10.4805 8.37891 9.33203 6.95703 7.60938C6.71094 8.01953 6.57422 8.51172 6.57422 9.05859C6.57422 10.043 7.06641 10.918 7.85938 11.4375C7.39453 11.4102 6.92969 11.3008 6.54688 11.082V11.1094C6.54688 12.5039 7.53125 13.6523 8.84375 13.9258C8.625 13.9805 8.35156 14.0352 8.10547 14.0352C7.91406 14.0352 7.75 14.0078 7.55859 13.9805C7.91406 15.1289 8.98047 15.9492 10.2383 15.9766C9.25391 16.7422 8.02344 17.207 6.68359 17.207C6.4375 17.207 6.21875 17.1797 6 17.1523C7.25781 17.9727 8.76172 18.4375 10.4023 18.4375C15.6797 18.4375 18.5508 14.0898 18.5508 10.2891C18.5508 10.1523 18.5508 10.043 18.5508 9.90625Z" fill="#313445"/>
</svg>
