<svg width="70" height="70" viewBox="0 0 70 70" fill="none" xmlns="http://www.w3.org/2000/svg">
<g id="Group 30">
<path id="Vector" d="M52.5 37.0059L66.2536 23.2523L67.6662 24.6649C68.0571 25.0558 68.6451 25.1728 69.1562 24.9613C69.6667 24.7493 70 24.251 70 23.6983V14.6289C70 13.8737 69.388 13.2617 68.6328 13.2617H59.564C59.0107 13.2617 58.5124 13.595 58.3009 14.1055C58.0889 14.6166 58.2059 15.2046 58.5968 15.5956L60.0665 17.0647L52.5 24.6313V14.6289C52.5 12.066 50.4145 9.98047 47.8516 9.98047H36.5269V9.74121C36.5269 7.38548 34.6101 5.46875 32.2544 5.46875H29.4629V4.58008C29.4629 2.05452 27.4084 0 24.8828 0C22.3573 0 20.3027 2.05452 20.3027 4.58008V5.46875H17.5112C15.1555 5.46875 13.2388 7.38548 13.2388 9.74121V9.98047H4.64844C2.08549 9.98047 0 12.066 0 14.6289V28.8477C0 29.6028 0.61203 30.2148 1.36719 30.2148C2.12234 30.2148 2.73438 29.6028 2.73438 28.8477V14.6289C2.73438 13.5736 3.59314 12.7148 4.64844 12.7148H13.2388V15.8594C13.2388 16.6145 13.8508 17.2266 14.6059 17.2266H35.1591C35.9143 17.2266 36.5263 16.6145 36.5263 15.8594V12.7148H47.8516C48.9069 12.7148 49.7656 13.5736 49.7656 14.6289V27.3656L46.2013 30.9299L39.7852 24.5143C39.2516 23.9803 38.3859 23.9803 37.8519 24.5143L25.137 37.2286C24.8807 37.4855 24.7365 37.8332 24.7365 38.1953C24.7365 38.5579 24.8807 38.9056 25.137 39.1624L29.3908 43.4162C29.6578 43.6827 30.0076 43.8162 30.3574 43.8162C30.7072 43.8162 31.0571 43.6827 31.3241 43.4162L38.8185 35.9218L45.2347 42.338C45.7682 42.8715 46.6344 42.8715 47.168 42.338L49.7656 39.7403V50.3125H42.3828C41.6277 50.3125 41.0156 50.9245 41.0156 51.6797V58.5156H33.6328C32.8777 58.5156 32.2656 59.1277 32.2656 59.8828V67.2656H4.64844C3.59314 67.2656 2.73438 66.4069 2.73438 65.3516V41.1523C2.73438 40.3972 2.12234 39.7852 1.36719 39.7852C0.61203 39.7852 0 40.3972 0 41.1523V65.3516C0 67.9145 2.08549 70 4.64844 70H68.6328C69.388 70 70 69.388 70 68.6328V39.6484C70 38.8933 69.388 38.2812 68.6328 38.2812H59.8828C59.1277 38.2812 58.5156 38.8933 58.5156 39.6484V45.3906H52.5V37.0059ZM23.0371 4.58008C23.0371 3.56216 23.8649 2.73438 24.8828 2.73438C25.9007 2.73438 26.7285 3.56216 26.7285 4.58008V5.46875H23.0371V4.58008ZM33.7925 14.4922H15.9731V9.74121C15.9731 8.89313 16.6631 8.20312 17.5112 8.20312H32.2544C33.1025 8.20312 33.7925 8.89313 33.7925 9.74121V14.4922ZM46.2013 39.4375L39.7852 33.0213C39.2516 32.4873 38.3859 32.4873 37.8519 33.0213L30.3574 40.5157L28.0375 38.1953L38.8185 27.4142L45.2347 33.8304C45.7687 34.3639 46.6344 34.3639 47.1685 33.8304L62.967 18.0319C63.5005 17.4979 63.5005 16.6322 62.967 16.0981L62.8645 15.9961H67.2656V20.3973L67.2202 20.3519C66.6867 19.8178 65.821 19.8178 65.2869 20.3519L46.2013 39.4375ZM35 67.2656V61.25H41.0156V67.2656H35ZM43.75 59.8828V53.0469H49.7656V67.2656H43.75V59.8828ZM61.25 41.0156H67.2656V67.2656H61.25V41.0156ZM58.5156 67.2656H52.5V48.125H58.5156V67.2656Z" fill="white"/>
<path id="Vector_2" d="M1.36719 36.3849C1.72661 36.3849 2.07962 36.2386 2.33383 35.9843C2.58804 35.7301 2.73438 35.3777 2.73438 35.0177C2.73438 34.6583 2.58804 34.3058 2.33383 34.0511C2.07962 33.7958 1.72661 33.6505 1.36719 33.6505C1.00777 33.6505 0.654755 33.7958 0.400543 34.0511C0.146332 34.3058 0 34.6583 0 35.0177C0 35.3777 0.146332 35.7301 0.400543 35.9843C0.654755 36.2386 1.00777 36.3849 1.36719 36.3849Z" fill="white"/>
<path id="Vector_3" d="M13.2866 21.4773H9.32173C8.56657 21.4773 7.95454 22.0893 7.95454 22.8445C7.95454 23.5996 8.56657 24.2117 9.32173 24.2117H13.2866C14.0417 24.2117 14.6538 23.5996 14.6538 22.8445C14.6538 22.0893 14.0412 21.4773 13.2866 21.4773Z" fill="#2FB67E"/>
<path id="Vector_4" d="M24.7212 24.2117C25.4764 24.2117 26.0884 23.5996 26.0884 22.8445C26.0884 22.0893 25.4764 21.4773 24.7212 21.4773H19.6626C18.9075 21.4773 18.2955 22.0893 18.2955 22.8445C18.2955 23.5996 18.9075 24.2117 19.6626 24.2117H24.7212Z" fill="#2FB67E"/>
<path id="Vector_5" d="M8.35349 33.0142C8.09927 33.2684 7.95454 33.6214 7.95454 33.9808C7.95454 34.3403 8.09927 34.6933 8.35349 34.9475C8.6093 35.2017 8.96178 35.348 9.32173 35.348C9.68115 35.348 10.0336 35.2017 10.2878 34.9475C10.5426 34.6933 10.6889 34.3403 10.6889 33.9808C10.6889 33.6214 10.5426 33.2684 10.2878 33.0142C10.0336 32.76 9.68115 32.6136 9.32173 32.6136C8.96071 32.6136 8.6093 32.76 8.35349 33.0142Z" fill="#2FB67E"/>
<path id="Vector_6" d="M14.3182 33.9808C14.3182 34.736 14.9302 35.348 15.6854 35.348H24.9822C25.7374 35.348 26.3494 34.736 26.3494 33.9808C26.3494 33.2257 25.7374 32.6136 24.9822 32.6136H15.6854C14.9302 32.6136 14.3182 33.2257 14.3182 33.9808Z" fill="#2FB67E"/>
<path id="Vector_7" d="M24.1992 59.8828H20.2344C19.4792 59.8828 18.8672 60.4948 18.8672 61.25C18.8672 62.0052 19.4792 62.6172 20.2344 62.6172H24.1992C24.9544 62.6172 25.5664 62.0052 25.5664 61.25C25.5664 60.4948 24.9544 59.8828 24.1992 59.8828Z" fill="#2FB67E"/>
<path id="Vector_8" d="M8.75 62.6172H13.8086C14.5638 62.6172 15.1758 62.0052 15.1758 61.25C15.1758 60.4948 14.5638 59.8828 13.8086 59.8828H8.75C7.99484 59.8828 7.38281 60.4948 7.38281 61.25C7.38281 62.0052 7.99484 62.6172 8.75 62.6172Z" fill="#2FB67E"/>
<path id="Vector_9" d="M7.38281 44.3218C7.38281 45.0769 7.99484 45.689 8.75 45.689H24.1992C24.9544 45.689 25.5664 45.0769 25.5664 44.3218C25.5664 43.5666 24.9544 42.9546 24.1992 42.9546H8.75C7.99484 42.9546 7.38281 43.5666 7.38281 44.3218Z" fill="#2FB67E"/>
<path id="Vector_10" d="M24.1993 53.3203H22.1031C21.3479 53.3203 20.7359 53.9323 20.7359 54.6875C20.7359 55.4427 21.3479 56.0547 22.1031 56.0547H24.1993C24.9544 56.0547 25.5665 55.4427 25.5665 54.6875C25.5665 53.9323 24.9544 53.3203 24.1993 53.3203Z" fill="#2FB67E"/>
<path id="Vector_11" d="M8.75 56.0547H15.9507C16.7059 56.0547 17.3179 55.4427 17.3179 54.6875C17.3179 53.9323 16.7059 53.3203 15.9507 53.3203H8.75C7.99484 53.3203 7.38281 53.9323 7.38281 54.6875C7.38281 55.4427 7.99484 56.0547 8.75 56.0547Z" fill="#2FB67E"/>
</g>
</svg>
