<svg width="70" height="70" viewBox="0 0 70 70" fill="none" xmlns="http://www.w3.org/2000/svg">
<g id="Group 28">
<path id="Vector" d="M12.3116 54.1337C11.3316 54.1337 10.3896 54.3783 9.55376 54.8376C5.15099 49.1937 2.73437 42.1825 2.73437 35C2.73437 17.2084 17.2084 2.73438 35 2.73438C37.1629 2.73438 39.3248 2.9496 41.4258 3.37418C42.1649 3.52371 42.887 3.0452 43.0365 2.30499C43.186 1.56479 42.7075 0.843811 41.9673 0.693741C39.6885 0.233383 37.3445 0 35 0C25.6513 0 16.8618 3.64067 10.2512 10.2512C3.64067 16.8618 0 25.6513 0 35C0 42.864 2.67029 50.5384 7.53181 56.6908C6.9059 57.6259 6.56944 58.725 6.56944 59.8759C6.56944 61.4097 7.16705 62.8516 8.25172 63.9358C9.33586 65.0205 10.7778 65.6181 12.3116 65.6181C13.8454 65.6181 15.2874 65.0205 16.3721 63.9358C17.4567 62.8516 18.0538 61.4092 18.0538 59.8753C18.0538 58.3421 17.4567 56.8996 16.3721 55.8154C15.2874 54.7308 13.8454 54.1337 12.3116 54.1337ZM14.4382 62.0025C13.8705 62.5707 13.1149 62.8837 12.3116 62.8837C11.5084 62.8837 10.7532 62.5707 10.185 62.0025C9.61677 61.4343 9.30382 60.6791 9.30382 59.8759C9.30382 59.0721 9.61677 58.317 10.185 57.7487C10.7527 57.1805 11.5084 56.8681 12.3116 56.8681C13.1149 56.8681 13.87 57.181 14.4382 57.7487C15.0065 58.317 15.3194 59.0721 15.3194 59.8759C15.3194 60.6791 15.0065 61.4343 14.4382 62.0025Z" fill="white"/>
<path id="Vector_2" d="M62.4672 13.3077C63.9535 11.078 63.7147 8.02957 61.7489 6.06371C60.6642 4.97957 59.2223 4.38196 57.6884 4.38196C56.1546 4.38196 54.7127 4.97957 53.628 6.06371C52.5433 7.14838 51.9463 8.59033 51.9463 10.1241C51.9463 11.658 52.5433 13.0999 53.628 14.1846C54.7127 15.2693 56.1546 15.8663 57.6884 15.8663C58.6684 15.8663 59.6105 15.6217 60.4463 15.1624C64.8491 20.8069 67.2657 27.8175 67.2657 35C67.2657 52.7916 52.7917 67.2656 35.0001 67.2656C32.8585 67.2656 30.7169 67.0547 28.6357 66.6381C27.8955 66.4902 27.1751 66.9703 27.0266 67.7105C26.8787 68.4512 27.3588 69.1712 28.099 69.3196C30.3564 69.7709 32.6785 70 35.0001 70C44.3487 70 53.1383 66.3593 59.7488 59.7488C66.3594 53.1382 70.0001 44.3487 70.0001 35C70.0001 27.1355 67.3293 19.4605 62.4672 13.3077ZM55.5618 12.2513C54.9936 11.6831 54.6806 10.9279 54.6806 10.1241C54.6806 9.32092 54.9936 8.56577 55.5618 7.99753C56.1295 7.42929 56.8852 7.11633 57.6884 7.11633C58.4917 7.11633 59.2474 7.42929 59.8156 7.99753C60.9879 9.17032 60.9879 11.0785 59.8156 12.2513C59.2474 12.819 58.4917 13.132 57.6884 13.132C56.8847 13.132 56.1295 12.819 55.5618 12.2513Z" fill="white"/>
<path id="Vector_3" d="M29.3582 58.5156C29.3582 59.2708 29.9708 59.8828 30.7254 59.8828H39.2741C40.0292 59.8828 40.6413 59.2708 40.6413 58.5156V55.8651C42.4389 55.3812 44.1575 54.6688 45.7725 53.7385L47.6438 55.6098C47.9002 55.8662 48.2478 56.0104 48.611 56.0104C48.9731 56.0104 49.3213 55.8662 49.5776 55.6093L55.62 49.5627C56.1535 49.0286 56.1535 48.1629 55.62 47.6294L53.7508 45.7602C54.6811 44.1452 55.3935 42.4266 55.8774 40.629H58.5178C59.2729 40.629 59.8849 40.0169 59.8849 39.2618V30.7131C59.8849 29.958 59.2729 29.3459 58.5178 29.3459H55.8768C55.393 27.5488 54.6811 25.8302 53.7508 24.2152L55.6098 22.3562C55.8662 22.0998 56.0104 21.7516 56.0104 21.389C56.0098 21.0264 55.8656 20.6782 55.6093 20.4218L49.5621 14.3795C49.0286 13.846 48.1629 13.846 47.6289 14.38L45.7725 16.237C44.1575 15.3066 42.4389 14.5942 40.6413 14.1103V11.4844C40.6413 10.7292 40.0292 10.1172 39.2741 10.1172H30.7254C29.9708 10.1172 29.3582 10.7292 29.3582 11.4844V14.1109C27.5611 14.5942 25.8425 15.3066 24.2275 16.237L22.3706 14.38C21.8371 13.8465 20.9714 13.846 20.4373 14.3795L14.3907 20.4224C14.1338 20.6787 13.9896 21.0264 13.9896 21.389C13.9896 21.7516 14.1338 22.0998 14.3902 22.3562L16.2492 24.2152C15.3189 25.8302 14.6065 27.5483 14.1226 29.3459H11.487C10.7319 29.3459 10.1199 29.958 10.1199 30.7126L10.1151 39.2612C10.1145 39.6239 10.2587 39.9721 10.5151 40.2284C10.7714 40.4848 11.1191 40.629 11.4822 40.629H14.1226C14.6065 42.4266 15.3189 44.1452 16.2492 45.7602L14.38 47.6294C13.8465 48.1629 13.846 49.0286 14.38 49.5627L20.4224 55.6093C20.6787 55.8656 21.0264 56.0104 21.389 56.0104H21.3895C21.7522 56.0104 22.0998 55.8662 22.3562 55.6098L24.227 53.7385C25.8425 54.6688 27.5611 55.3812 29.3582 55.8651V58.5156ZM24.7632 50.8631C24.2222 50.5133 23.5103 50.5891 23.0542 51.0447L21.3895 52.7094L17.28 48.5966L18.943 46.933C19.3986 46.4774 19.4744 45.7655 19.1246 45.2245C17.8851 43.3062 17.0135 41.2036 16.535 38.9745C16.3993 38.3448 15.8428 37.8946 15.1982 37.8946H12.85L12.8532 32.0803H15.1982C15.8428 32.0803 16.3993 31.6306 16.535 31.0004C17.0135 28.7718 17.8851 26.6692 19.1246 24.7509C19.4744 24.2099 19.3986 23.498 18.943 23.0424L17.2907 21.3895L21.4034 17.28L23.0542 18.9313C23.5103 19.3868 24.2217 19.4621 24.7632 19.1129C26.681 17.8733 28.7836 17.0017 31.0127 16.5232C31.6424 16.3876 32.0926 15.8305 32.0926 15.1865V12.8516H37.9069V15.1859C37.9069 15.8305 38.3566 16.3876 38.9867 16.5227C41.2154 17.0017 43.3185 17.8728 45.2363 19.1123C45.7773 19.4621 46.4892 19.3868 46.9447 18.9307L48.596 17.28L52.7088 21.3895L51.0564 23.0419C50.6004 23.498 50.5251 24.2099 50.8749 24.7509C52.1144 26.6692 52.9855 28.7718 53.4645 31.0004C53.5996 31.6306 54.1566 32.0803 54.8013 32.0803H57.1506V37.8946H54.8013C54.1566 37.8946 53.6002 38.3448 53.4645 38.9745C52.986 41.2031 52.1144 43.3062 50.8749 45.224C50.5251 45.7655 50.6009 46.4774 51.0564 46.933L52.7195 48.596L48.6099 52.7088L46.9453 51.0447C46.4892 50.5886 45.7773 50.5133 45.2363 50.8631C43.3179 52.1027 41.2154 52.9737 38.9867 53.4528C38.3566 53.5884 37.9069 54.1449 37.9069 54.7895V57.1484H32.0926V54.7895C32.0926 54.1454 31.6424 53.5884 31.0127 53.4528C28.7841 52.9742 26.6815 52.1027 24.7632 50.8631Z" fill="#2FB67E"/>
<path id="Vector_4" d="M46.2969 34.9999C46.2969 28.7707 41.2292 23.703 35 23.703C28.7707 23.703 23.703 28.7707 23.703 34.9999C23.703 41.2292 28.7707 46.2968 35 46.2968C41.2292 46.2968 46.2969 41.2292 46.2969 34.9999ZM26.4374 34.9999C26.4374 30.2783 30.2784 26.4374 35 26.4374C39.7216 26.4374 43.5625 30.2789 43.5625 34.9999C43.5625 39.721 39.7216 43.5625 35 43.5625C30.2784 43.5625 26.4374 39.7215 26.4374 34.9999Z" fill="white"/>
<path id="Vector_5" d="M47.5888 5.17067C47.9488 5.17067 48.3012 5.02434 48.5555 4.77013C48.8097 4.51431 48.956 4.16183 48.956 3.80188C48.956 3.44406 48.8102 3.09105 48.5555 2.83524C48.3012 2.58102 47.9488 2.43469 47.5888 2.43469C47.2278 2.43469 46.8769 2.58102 46.6227 2.83524C46.368 3.09105 46.2216 3.44246 46.2216 3.80188C46.2216 4.1629 46.368 4.51431 46.6227 4.77013C46.8769 5.02434 47.2278 5.17067 47.5888 5.17067Z" fill="white"/>
<path id="Vector_6" d="M22.471 64.8538C22.1116 64.8538 21.7586 65.0001 21.5044 65.2543C21.2502 65.5085 21.1038 65.8615 21.1038 66.2209C21.1038 66.582 21.2502 66.9334 21.5044 67.1876C21.7586 67.4418 22.1116 67.5881 22.471 67.5881C22.8304 67.5881 23.1834 67.4418 23.4377 67.1876C23.6919 66.9334 23.8382 66.5804 23.8382 66.2209C23.8382 65.8615 23.6919 65.5085 23.4377 65.2543C23.1834 65.0001 22.8304 64.8538 22.471 64.8538Z" fill="white"/>
</g>
</svg>
