<svg width="72" height="72" viewBox="0 0 72 72" fill="none" xmlns="http://www.w3.org/2000/svg">
<g id="Group">
<path id="Vector" d="M66.2228 5.19446H57.0202C56.4377 5.19446 55.9655 5.66668 55.9655 6.24914C55.9655 6.83161 56.4377 7.30383 57.0202 7.30383H66.2228C66.8053 7.30383 67.2775 6.83161 67.2775 6.24914C67.2775 5.66668 66.8054 5.19446 66.2228 5.19446Z" fill="#2FB67E"/>
<path id="Vector_2" d="M51.7943 7.30383H52.9161C53.4985 7.30383 53.9708 6.83161 53.9708 6.24914C53.9708 5.66668 53.4985 5.19446 52.9161 5.19446H51.7943C51.2118 5.19446 50.7396 5.66668 50.7396 6.24914C50.7396 6.83161 51.2118 7.30383 51.7943 7.30383Z" fill="#2FB67E"/>
<path id="Vector_3" d="M51.7943 12.2584H66.223C66.8054 12.2584 67.2777 11.7862 67.2777 11.2037C67.2777 10.6213 66.8054 10.149 66.223 10.149H51.7943C51.2118 10.149 50.7396 10.6213 50.7396 11.2037C50.7396 11.7862 51.2118 12.2584 51.7943 12.2584Z" fill="#2FB67E"/>
<path id="Vector_4" d="M55.6091 62.4074C55.6091 58.1944 54.2025 54.0613 51.6406 50.7219L51.8361 47.1212C51.9691 44.6701 50.024 42.5964 47.5501 42.5964H36.0051C35.474 42.2211 35.1518 41.6115 35.1518 40.9531V38.0083C36.9418 36.8507 38.1986 35.5305 39.1218 33.9594H41.1628C43.5241 33.9594 45.445 32.0385 45.445 29.6773V21.8006C45.445 20.4721 44.6765 19.2977 43.5272 18.7421V13.2142C43.5272 10.6976 41.4798 8.65006 38.9632 8.65006H38.8449C38.7729 8.65006 38.7144 8.59142 38.7144 8.51956C38.7144 6.00294 36.6669 3.95544 34.1503 3.95544H22.9806C17.4362 3.95544 12.9254 8.46626 12.9254 14.0107V18.742C11.7762 19.2976 11.0075 20.472 11.0075 21.8004V25.8063C11.0075 27.6805 12.5323 29.2053 14.4066 29.2053H15.7681C16.1205 32.186 17.5187 34.9082 19.7088 36.8007C20.2227 37.2448 20.7541 37.6415 21.3007 37.9959V40.953C21.3007 41.6094 20.9773 42.2192 20.4437 42.5963H8.90281C6.44807 42.5963 4.48284 44.6508 4.61699 47.121L4.81246 50.7217C2.25042 54.0613 0.843889 58.1944 0.843889 62.4074V66.3799C0.319499 66.9676 0 67.7417 0 68.5894C0 70.4214 1.49048 71.9118 3.32254 71.9118H53.1304C54.9625 71.9118 56.453 70.4213 56.453 68.5894C56.453 67.7417 56.1335 66.9676 55.6091 66.38V62.4074ZM53.4997 62.4074V65.2878C53.3783 65.2743 53.2553 65.2668 53.1304 65.2668H50.8512L51.4464 54.2995C52.7814 56.7789 53.4997 59.5721 53.4997 62.4074ZM43.2275 21.2856C43.2968 21.4442 43.3359 21.6183 43.3359 21.8007V25.8066C43.3359 26.5177 42.7574 27.0962 42.0462 27.0962H40.792V23.1203L41.442 22.8939C42.2461 22.6138 42.8784 22.0232 43.2275 21.2856ZM36.186 33.5056H33.5391C33.1125 33.5056 32.7653 33.1586 32.7653 32.7319C32.7653 32.3053 33.1125 31.9582 33.5391 31.9582H36.186C36.6126 31.9582 36.9597 32.3053 36.9597 32.7319C36.9597 33.1586 36.6126 33.5056 36.186 33.5056ZM41.1631 31.8502H40.097C40.394 31.0033 40.5991 30.1163 40.7072 29.2056H42.0462C42.5026 29.2056 42.9379 29.1146 43.3359 28.9508V29.6775C43.3359 30.8755 42.3611 31.8502 41.1631 31.8502ZM15.035 14.011C15.035 9.62965 18.5996 6.0651 22.9809 6.0651H34.1506C35.5041 6.0651 36.6053 7.16633 36.6053 8.51984C36.6053 9.75495 37.6102 10.7597 38.8452 10.7597H38.9635C40.317 10.7597 41.4181 11.8609 41.4181 13.2145V19.9592C41.4181 20.3836 41.1488 20.7625 40.748 20.9021L38.5316 21.674C38.4423 21.705 38.3502 21.6406 38.3502 21.5445L38.3543 17.3533C38.3671 14.2946 35.503 11.6269 31.4901 12.9159C29.4718 13.5645 26.9742 13.5622 24.9627 12.9159C20.9915 11.6396 18.0857 14.2599 18.0985 17.3501L18.1035 21.5448C18.1035 21.6415 18.0092 21.7052 17.9221 21.674L15.705 20.902C15.3042 20.7625 15.0349 20.3835 15.0349 19.9591V14.011H15.035ZM13.1172 25.8066V21.8006C13.1172 21.6183 13.1563 21.4441 13.2256 21.2855C13.5748 22.0232 14.2072 22.6138 15.0115 22.8939L15.6614 23.1202V27.0961H14.407C13.6957 27.0962 13.1172 26.5176 13.1172 25.8066ZM17.79 27.9874C17.755 26.6008 17.7765 25.129 17.7706 23.7816C17.8356 23.7872 17.9007 23.7904 17.9658 23.7904C19.2197 23.7904 20.2149 22.7712 20.2128 21.5417L20.2079 17.3443C20.2007 15.6318 21.7369 14.0946 24.3174 14.924C26.7631 15.7098 29.6977 15.7075 32.1354 14.924C34.594 14.1341 36.2525 15.5248 36.2449 17.3478L36.2408 21.542C36.2391 22.8492 37.3565 23.8966 38.6824 23.7816V28.0727C38.6517 28.9843 38.5016 29.8738 38.2471 30.7198C37.7233 30.1832 36.9933 29.8487 36.186 29.8487H33.5391C31.9494 29.8487 30.6559 31.142 30.6559 32.7318C30.6559 34.3215 31.9494 35.6149 33.5391 35.6149H34.8792C32.9311 37.1354 30.7158 37.9283 28.2817 37.9686C22.9571 37.926 17.9423 33.9923 17.79 27.9874ZM23.4105 40.9532V39.1078C24.935 39.7391 26.5613 40.0662 28.2789 40.0783H28.2864C28.2919 40.0783 28.2974 40.0783 28.3028 40.0781C29.975 40.0521 31.5582 39.7281 33.0429 39.1164V40.9531C33.0429 41.529 33.1634 42.0864 33.3853 42.5964H23.0668C23.2894 42.0863 23.4105 41.5287 23.4105 40.9532ZM5.00652 54.2995L5.17302 57.3681C5.20466 57.9499 5.7029 58.3972 6.28325 58.3641C6.86488 58.3326 7.3108 57.8355 7.2793 57.2539L6.72313 47.007C6.65549 45.7605 7.64464 44.706 8.90281 44.706H47.5503C48.7992 44.706 49.798 45.7511 49.73 47.007L48.7388 65.267H32.2002C32.4018 64.0622 32.9443 62.9291 33.78 62.0007L33.8103 61.9669C37.0027 58.3954 36.0472 52.8103 31.9207 50.4655C30.8618 49.8639 29.517 50.6142 29.517 51.8614V56.6468C29.517 56.8662 29.3385 57.0445 29.1192 57.0445H27.3338C27.1144 57.0445 26.936 56.8661 26.936 56.6468V51.8614C26.936 50.6166 25.5933 49.8627 24.5323 50.4655C20.394 52.8168 19.4578 58.4039 22.6459 61.9705L22.6729 62.0007C23.5087 62.929 24.0512 64.0621 24.2527 65.2668H7.71425L7.54508 62.1488C7.51358 61.5671 7.01647 61.1207 6.43485 61.1527C5.85322 61.1842 5.4073 61.6813 5.4388 62.263L5.60179 65.2668H3.32254C3.19767 65.2668 3.07462 65.2744 2.95326 65.2878V62.4074C2.95326 59.5722 3.67171 56.7789 5.00652 54.2995ZM26.3839 65.2668C26.168 63.5387 25.4272 61.9073 24.2409 60.5895L24.2154 60.561C22.1776 58.2814 22.4506 54.7564 24.8267 52.8123V56.6467C24.8267 58.0292 25.9515 59.1537 27.3339 59.1537H29.1193C30.5018 59.1537 31.6265 58.029 31.6265 56.6467V52.8123C33.9869 54.7435 34.2892 58.266 32.2351 60.5639L32.2123 60.5894C31.0259 61.9073 30.2851 63.5387 30.0692 65.2668H26.3839ZM53.1304 69.8026H3.32254C2.65359 69.8026 2.10937 69.2583 2.10937 68.5895C2.10937 67.9207 2.65359 67.3764 3.32254 67.3764H53.1304C53.7994 67.3764 54.3436 67.9206 54.3436 68.5895C54.3436 69.2585 53.7994 69.8026 53.1304 69.8026Z" fill="white"/>
<path id="Vector_5" d="M70.9452 7.21785C71.5276 7.21785 71.9999 6.74563 71.9999 6.16316V4.12185C71.9999 1.84907 70.1508 0 67.8779 0H50.1393C47.8664 0 46.0173 1.84907 46.0173 4.12185V12.9936C46.0173 15.2665 47.8664 17.1156 50.1393 17.1156C50.5455 17.1156 50.8759 17.446 50.8759 17.8522V23.3386C50.8759 24.1311 51.3889 24.8055 52.1527 25.0169C52.9209 25.2295 53.7056 24.9097 54.1107 24.2341L58.1649 17.4733C58.2972 17.2527 58.5394 17.1156 58.7967 17.1156H67.878C70.1509 17.1156 72 15.2665 72 12.9936V11.094C72 10.5116 71.5278 10.0393 70.9453 10.0393C70.3628 10.0393 69.8906 10.5116 69.8906 11.094V12.9936C69.8906 14.1034 68.9878 15.0062 67.878 15.0062H58.7966C57.8024 15.0062 56.8671 15.5359 56.3558 16.3885L52.9851 22.0093V17.8522C52.9851 16.2829 51.7084 15.0062 50.1392 15.0062C49.0294 15.0062 48.1266 14.1034 48.1266 12.9936V4.12185C48.1266 3.01218 49.0294 2.10937 50.1392 2.10937H67.8779C68.9877 2.10937 69.8905 3.01218 69.8905 4.12185V6.16316C69.8905 6.74563 70.3627 7.21785 70.9452 7.21785Z" fill="#2FB67E"/>
</g>
</svg>
