<svg width="70" height="70" viewBox="0 0 70 70" fill="none" xmlns="http://www.w3.org/2000/svg">
<g id="Group 31">
<path id="Vector" d="M36.3134 33.2707C35.7849 32.7361 34.9293 32.7361 34.4009 33.2707C33.8737 33.8039 33.8737 34.6693 34.4009 35.2039C34.9293 35.7371 35.7849 35.7371 36.3134 35.2039C36.8406 34.6693 36.8406 33.8039 36.3134 33.2707Z" fill="#2FB67E"/>
<path id="Vector_2" d="M53.5162 15.8689C50.875 13.1976 46.5995 13.1974 43.9582 15.8689C41.324 18.5334 41.3239 22.8701 43.9586 25.5368C46.5938 28.2007 50.8813 28.2017 53.5162 25.5366C56.157 22.8653 56.1575 18.5405 53.5162 15.8689ZM51.6047 23.6029C50.0242 25.2017 47.4514 25.2017 45.8701 23.6032C44.2894 22.0033 44.2893 19.401 45.8699 17.8024C47.4544 16.1996 50.0198 16.1994 51.6047 17.8024C53.1892 19.405 53.1895 22.0001 51.6047 23.6029Z" fill="#2FB67E"/>
<g id="Group">
<path id="Vector_3" d="M68.8083 0.400462C68.5429 0.132083 68.1806 -0.013385 67.804 0.000970428C67.4984 0.0120446 60.2218 0.307904 51.572 3.40034C44.6407 5.87577 38.8633 9.41992 34.4003 13.9344C33.4002 14.9459 32.4271 16.0186 31.4959 17.133C27.083 14.5056 23.5469 15.3294 21.3114 16.5395C16.1642 19.3259 12.9782 26.8913 12.9782 32.3026C12.9786 32.8555 13.308 33.3541 13.813 33.5656C13.9802 33.6358 14.1559 33.6698 14.33 33.6698C14.6818 33.6698 15.0274 33.5308 15.286 33.2694C18.0005 30.5237 21.3487 30.6954 22.4424 30.8408L22.9158 31.3196C21.9842 33.5618 21.2338 35.7914 20.6834 37.9599C20.4847 38.7447 20.5517 39.5751 20.8471 40.3347C19.5457 40.9413 18.2902 41.8321 17.1969 42.9378C13.7177 46.4572 13.0112 55.0341 12.9828 55.3975C12.9517 55.7963 13.0947 56.189 13.3743 56.4719C13.6289 56.7292 13.9731 56.8723 14.33 56.8723C14.3654 56.8723 14.4009 56.871 14.4365 56.8681C14.7957 56.8395 23.2754 56.1249 26.7547 52.6056C27.8475 51.5002 28.728 50.2304 29.3277 48.9143C30.1228 49.2306 30.9411 49.2695 31.6769 49.0788C33.8198 48.5222 36.0238 47.7635 38.2408 46.8211L38.7141 47.2998C38.8578 48.4063 39.0276 51.793 36.3132 54.5384C35.9267 54.9294 35.811 55.5174 36.0203 56.0282C36.2294 56.5391 36.7222 56.8722 37.2689 56.8722C42.6188 56.8722 50.0981 53.6496 52.8528 48.4432C54.0491 46.1823 54.8636 42.6055 52.266 38.1418C53.3672 37.2003 54.4278 36.2159 55.4283 35.2039C59.8915 30.6895 63.3952 24.8457 65.8425 17.8354C68.9 9.08564 69.1923 1.72526 69.2033 1.41628C69.2168 1.03689 69.0736 0.668977 68.8083 0.400462ZM16.0002 29.362C16.8398 25.2518 19.2786 20.7416 22.5875 18.9503C24.7986 17.7535 27.2155 17.8708 29.7853 19.2936C27.596 22.206 25.6927 25.3437 24.1063 28.657C24.0862 28.6445 23.8429 28.3351 23.3909 28.232C23.205 28.1895 19.6287 27.4114 16.0002 29.362ZM24.8432 50.672C22.9847 52.5519 18.625 53.5434 15.8694 53.9482C16.2697 51.1608 17.2501 46.751 19.1084 44.8713C20.1492 43.8186 21.356 43.0204 22.5689 42.5709L27.1175 47.1717C26.6731 48.3986 25.8841 49.6193 24.8432 50.672ZM31.0054 46.43C30.6142 46.5313 30.1612 46.3826 29.8243 46.0424C28.0757 44.2737 27.3916 43.5818 27.177 43.3648C26.7834 42.9667 25.8182 41.9904 23.6862 39.8338C23.3491 39.4921 23.2021 39.034 23.3019 38.639C23.7349 36.9336 24.3011 35.1838 24.9896 33.4173L36.1671 44.7232C34.4203 45.4198 32.6908 45.9924 31.0054 46.43ZM50.4697 47.153C48.6988 50.4997 44.2399 52.9667 40.1766 53.8158C41.4722 51.3498 41.7578 48.2107 41.2844 46.3071C41.1745 45.865 40.8893 45.6427 40.8734 45.6166C44.1488 44.0119 47.2507 42.0868 50.1303 39.8723C51.5369 42.4719 51.6528 44.9168 50.4697 47.153ZM53.5171 33.2705C52.2991 34.5023 50.9876 35.6924 49.619 36.8076C46.3288 39.4873 42.7074 41.7571 38.8439 43.564L26.1357 30.71C27.922 26.8018 30.166 23.1388 32.815 19.8112C33.9185 18.4258 35.0949 17.0991 36.3124 15.8678C40.3166 11.8174 45.4845 8.59387 51.6767 6.27348L63.0024 17.7294C60.7087 23.9926 57.5218 29.2199 53.5171 33.2705ZM63.975 14.8459L54.5275 5.28979C59.6747 3.67268 64.1526 3.06716 66.3876 2.8495C66.1723 5.11069 65.5736 9.64004 63.975 14.8459Z" fill="white"/>
</g>
<path id="Vector_4" d="M32.4895 56.4714C31.9614 55.9376 31.1056 55.9378 30.5779 56.4717L26.7554 60.3395C26.2277 60.8735 26.2279 61.7392 26.7557 62.273C27.2838 62.8067 28.1396 62.8067 28.6673 62.2727L32.4898 58.4049C33.0175 57.8709 33.0173 57.0052 32.4895 56.4714Z" fill="#2FB67E"/>
<path id="Vector_5" d="M13.3748 37.137C12.8471 36.603 11.9913 36.603 11.4633 37.1367L7.63944 41.0031C7.11149 41.5369 7.11136 42.4026 7.63904 42.9366C8.16659 43.4703 9.02232 43.4709 9.55054 42.9369L13.3744 39.0705C13.9023 38.5367 13.9024 37.671 13.3748 37.137Z" fill="#2FB67E"/>
<path id="Vector_6" d="M22.9324 58.4062C22.4048 57.8723 21.5488 57.8723 21.0209 58.406L11.8648 67.666C11.3369 68.1999 11.3369 69.0656 11.8647 69.5995C12.3922 70.1333 13.2482 70.1336 13.7762 69.5996L22.9323 60.3396C23.4602 59.8058 23.4602 58.9401 22.9324 58.4062Z" fill="#2FB67E"/>
<path id="Vector_7" d="M12.119 58.4062C11.5913 57.8723 10.7353 57.8723 10.2075 58.406L1.05141 67.666C0.523454 68.1999 0.523454 69.0656 1.05127 69.5995C1.57882 70.1333 2.43482 70.1336 2.96278 69.5996L12.1188 60.3396C12.6468 59.8058 12.6468 58.9401 12.119 58.4062Z" fill="#2FB67E"/>
<path id="Vector_8" d="M11.4621 46.804C10.9344 46.2702 10.0784 46.2702 9.55057 46.8041L0.395847 56.0654C-0.131972 56.5995 -0.131972 57.465 0.395983 57.999C0.923802 58.5329 1.77967 58.5329 2.30748 57.9989L11.4622 48.7376C11.99 48.2036 11.99 47.338 11.4621 46.804Z" fill="#2FB67E"/>
<path id="Vector_9" d="M42.0473 27.4694C41.5194 26.9355 40.6638 26.9355 40.1357 27.4694L38.2244 29.4026C37.6966 29.9365 37.6966 30.8022 38.2244 31.3362C38.7524 31.8701 39.6081 31.8701 40.1361 31.3362L42.0473 29.403C42.5751 28.8691 42.5751 28.0034 42.0473 27.4694Z" fill="#2FB67E"/>
</g>
</svg>
