<svg width="70" height="70" viewBox="0 0 70 70" fill="none" xmlns="http://www.w3.org/2000/svg">
<g id="Group 27">
<path id="Vector" d="M30.9547 51.6038C31.3101 51.6038 31.6591 51.458 31.9104 51.2032C32.1618 50.949 32.3064 50.5965 32.3064 50.2365C32.3064 49.8771 32.1618 49.5246 31.9104 49.2704C31.6591 49.0156 31.3101 48.8693 30.9547 48.8693C30.5993 48.8693 30.2503 49.0156 29.999 49.2704C29.7476 49.5246 29.603 49.8771 29.603 50.2365C29.603 50.5965 29.7476 50.949 29.999 51.2032C30.2503 51.4575 30.5993 51.6038 30.9547 51.6038Z" fill="#2FB67E"/>
<path id="Vector_2" d="M29.7714 40.8622C30.518 40.8622 31.1232 40.2502 31.1232 39.495C31.1232 38.7403 30.518 38.1277 29.7714 38.1277H19.4201C18.6735 38.1277 18.0684 38.7403 18.0684 39.495C18.0684 40.2502 18.6735 40.8622 19.4201 40.8622H29.7714Z" fill="#2FB67E"/>
<path id="Vector_3" d="M13.3193 40.8622C14.0654 40.8622 14.6711 40.2502 14.6711 39.495C14.6711 38.7403 14.0654 38.1277 13.3193 38.1277H8.65111C7.90449 38.1277 7.29938 38.7403 7.29938 39.495C7.29938 40.2502 7.90449 40.8622 8.65111 40.8622H13.3193Z" fill="#2FB67E"/>
<path id="Vector_4" d="M54.8804 63.6101C54.5251 63.6101 54.176 63.7564 53.9247 64.0107C53.6734 64.2649 53.5287 64.6179 53.5287 64.9774C53.5287 65.3384 53.6734 65.6909 53.9247 65.9441C54.176 66.1994 54.5251 66.3457 54.8804 66.3457C55.2358 66.3457 55.5848 66.1994 55.8361 65.9441C56.0875 65.6899 56.2322 65.3379 56.2322 64.9774C56.2322 64.6179 56.0875 64.2649 55.8361 64.0107C55.5848 63.7564 55.2358 63.6101 54.8804 63.6101Z" fill="#2FB67E"/>
<path id="Vector_5" d="M65.1251 24.7791H61.9094V15.0891C61.9094 11.3617 59.0222 8.30457 55.391 8.08239L58.7666 4.66848V6.06192C58.7666 6.81659 59.3717 7.42919 60.1184 7.42919C60.865 7.42919 61.4701 6.81659 61.4701 6.06192V1.36727C61.4701 0.612067 60.865 0 60.1184 0H55.4776C54.731 0 54.1259 0.612067 54.1259 1.36727C54.1259 2.12247 54.731 2.73454 55.4776 2.73454H56.8547L51.5818 8.0685H37.0375C36.2909 8.0685 35.6858 8.68057 35.6858 9.43577C35.6858 10.1904 36.2909 10.803 37.0375 10.803H48.8784L33.8493 26.0043C33.1861 25.6411 32.44 25.4478 31.6649 25.4478C31.0086 25.4478 30.3739 25.5872 29.7925 25.8494L25.0081 21.01C25.7537 19.3042 25.4379 17.2346 24.0577 15.8384C22.2656 14.0257 19.3499 14.0257 17.5583 15.8384C16.1009 17.3125 15.829 19.5386 16.742 21.2936L12.8468 25.2336C11.1106 24.3054 8.90613 24.5788 7.44721 26.0551C6.57914 26.9331 6.10075 28.1006 6.10075 29.3418C6.10075 30.5836 6.57914 31.7511 7.44721 32.6292C8.31528 33.5072 9.46953 33.9906 10.6966 33.9906C11.9243 33.9906 13.0786 33.5072 13.9466 32.6292C14.8147 31.7511 15.2925 30.5836 15.2925 29.3418C15.2925 28.5706 15.1077 27.8282 14.7603 27.166L18.6508 23.2303C19.3229 23.5913 20.0653 23.7718 20.8077 23.7718C21.6489 23.7718 22.4889 23.5395 23.2276 23.077L27.7533 27.6547C27.3082 28.381 27.069 29.2201 27.069 30.0965C27.069 31.3383 27.5469 32.5058 28.4149 33.3838C29.311 34.2897 30.4879 34.7431 31.6649 34.7431C32.8419 34.7431 34.0188 34.2897 34.9149 33.3838C35.7829 32.5058 36.2608 31.3383 36.2608 30.0965C36.2608 29.3381 36.0818 28.608 35.7454 27.9543L52.7018 10.803H54.968C57.3051 10.803 59.2059 12.7258 59.2059 15.0891V24.7791H44.6357C42.3842 24.7791 40.552 26.6324 40.552 28.9098V44.6905H2.70347V15.0891C2.70347 12.7258 4.60434 10.803 6.94136 10.803H24.8761C25.6222 10.803 26.2279 10.1904 26.2279 9.43577C26.2279 8.68057 25.6222 8.0685 24.8761 8.0685H6.94136C3.11374 8.0685 0 11.218 0 15.0891V48.7619C0 52.633 3.11374 55.7831 6.94136 55.7831H24.7367V61.8231C21.3368 62.1019 18.6539 64.9876 18.6539 68.4971V68.6327C18.6539 69.3874 19.259 70 20.0057 70H41.9037C42.2808 70 42.6213 69.8435 42.8663 69.592C43.4023 69.8531 44.0021 70 44.6357 70H65.1251C67.3765 70 69.2088 68.1467 69.2088 65.8693V28.9098C69.2088 26.6324 67.3765 24.7791 65.1251 24.7791ZM12.0352 30.6958C12.0347 30.6958 12.0347 30.6958 12.0352 30.6958C11.6772 31.0573 11.2025 31.256 10.6966 31.256C10.1913 31.256 9.71611 31.0573 9.35864 30.6958C9.00117 30.3337 8.80422 29.8535 8.80422 29.3418C8.80422 28.8307 9.00117 28.35 9.35864 27.9885C9.72773 27.6157 10.2125 27.4287 10.6972 27.4287C11.1814 27.4287 11.6661 27.6151 12.0347 27.9885C12.3927 28.35 12.5891 28.8307 12.5891 29.3418C12.5891 29.8535 12.3927 30.3337 12.0352 30.6958ZM19.5225 20.5272C19.5051 20.5075 19.4887 20.4872 19.4697 20.4679C19.4528 20.4508 19.4349 20.4364 19.4174 20.4204C18.7347 19.67 18.7506 18.4993 19.4697 17.7719C19.8388 17.3985 20.3235 17.2121 20.8077 17.2121C21.2924 17.2121 21.7772 17.3985 22.1463 17.7719C22.8211 18.455 22.8765 19.529 22.3158 20.2783C22.2772 20.3195 22.2424 20.3627 22.2096 20.4076C22.1885 20.4311 22.169 20.4557 22.1463 20.4786C21.4255 21.2082 20.2639 21.2231 19.5225 20.5272ZM33.0029 31.4499C32.2653 32.196 31.0645 32.1966 30.3264 31.4499C29.9689 31.0883 29.7725 30.6076 29.7725 30.0965C29.7725 29.5849 29.9689 29.1042 30.3264 28.7426C30.6838 28.381 31.159 28.1823 31.6649 28.1823C32.1702 28.1823 32.6454 28.381 33.0029 28.7431C33.3604 29.1047 33.5573 29.5849 33.5573 30.0965C33.5573 30.6076 33.3604 31.0883 33.0029 31.4499ZM37.1727 55.7831H40.552V63.1022C39.59 62.3855 38.4304 61.9262 37.1727 61.8231V55.7831ZM43.2555 33.0404H66.5053V59.8822H43.2555V33.0404ZM44.6357 27.5137H65.1251C65.8859 27.5137 66.5053 28.1401 66.5053 28.9098V30.3059H43.2555V28.9098C43.2555 28.1401 43.8749 27.5137 44.6357 27.5137ZM2.70347 48.7619V47.4251H40.552V53.0485H6.94136C4.60434 53.0485 2.70347 51.1258 2.70347 48.7619ZM34.4692 55.7831V61.799H27.4402V55.7831H34.4692ZM21.5512 67.2655C22.0644 65.6808 23.5402 64.5336 25.2764 64.5336H36.6336C38.3692 64.5336 39.845 65.6808 40.3582 67.2655H21.5512ZM65.1251 67.2655H44.6357C43.8749 67.2655 43.2555 66.639 43.2555 65.8693V62.6167H66.5053V65.8693C66.5053 66.639 65.8859 67.2655 65.1251 67.2655Z" fill="white"/>
<path id="Vector_6" d="M47.3107 47.8289H53.4515C54.1976 47.8289 54.8033 47.2163 54.8033 46.4616C54.8033 45.7064 54.1976 45.0944 53.4515 45.0944H47.3107C46.564 45.0944 45.9589 45.7064 45.9589 46.4616C45.9589 47.2163 46.564 47.8289 47.3107 47.8289Z" fill="#2FB67E"/>
<path id="Vector_7" d="M62.4501 45.0944H59.104C58.3574 45.0944 57.7523 45.7064 57.7523 46.4616C57.7523 47.2163 58.3574 47.8289 59.104 47.8289H62.4501C63.1967 47.8289 63.8018 47.2163 63.8018 46.4616C63.8018 45.7064 63.1967 45.0944 62.4501 45.0944Z" fill="#2FB67E"/>
<path id="Vector_8" d="M47.3107 41.2659H62.4501C63.1967 41.2659 63.8018 40.6533 63.8018 39.8986C63.8018 39.1434 63.1967 38.5314 62.4501 38.5314H47.3107C46.564 38.5314 45.9589 39.1434 45.9589 39.8986C45.9589 40.6533 46.564 41.2659 47.3107 41.2659Z" fill="#2FB67E"/>
<path id="Vector_9" d="M62.4501 51.6567H47.3107C46.564 51.6567 45.9589 52.2693 45.9589 53.024C45.9589 53.7792 46.564 54.3913 47.3107 54.3913H62.4501C63.1967 54.3913 63.8018 53.7792 63.8018 53.024C63.8018 52.2693 63.1967 51.6567 62.4501 51.6567Z" fill="#2FB67E"/>
<path id="Vector_10" d="M30.9547 10.8036C31.3101 10.8036 31.6591 10.6573 31.9104 10.4025C32.1618 10.1472 32.3064 9.79581 32.3064 9.43636C32.3064 9.07639 32.1618 8.72389 31.9104 8.46966C31.6591 8.21543 31.3101 8.06909 30.9547 8.06909C30.5978 8.06909 30.2503 8.2149 29.999 8.46966C29.7476 8.72228 29.603 9.07532 29.603 9.43636C29.603 9.79581 29.7476 10.1472 29.999 10.4025C30.2503 10.6573 30.5993 10.8036 30.9547 10.8036Z" fill="white"/>
</g>
</svg>
