<svg width="61" height="70" viewBox="0 0 61 70" fill="none" xmlns="http://www.w3.org/2000/svg">
<g id="Group 29">
<path id="Vector" d="M59.1311 10.8227L50.1896 7.472C49.4894 7.20978 48.7122 7.57133 48.4525 8.27896C48.1932 8.98712 48.5507 9.77379 49.2508 10.036L57.31 13.0561V29.4453C57.31 46.831 46.3553 61.9507 30.0067 67.2005C13.658 61.9507 2.7033 46.831 2.7033 29.4453V13.0561L30.0067 2.82516L37.841 5.76088C38.5411 6.02364 39.3188 5.66208 39.578 4.95392C39.8373 4.24576 39.4804 3.45909 38.7803 3.19687L30.476 0.0849152C30.1735 -0.0283051 29.8398 -0.0283051 29.5373 0.0849152L0.882269 10.8227C0.351641 11.0213 0 11.533 0 12.1049V29.4453C0 38.5777 2.83794 47.2865 8.20706 54.6288C13.5762 61.9715 20.9775 67.2662 29.6107 69.9397C29.74 69.9797 29.8731 70 30.0067 70C30.1402 70 30.2733 69.9797 30.4027 69.9397C39.0358 67.2662 46.4371 61.9715 51.8063 54.6288C57.1754 47.2865 60.0133 38.5777 60.0133 29.4453V12.1049C60.0133 11.533 59.6612 11.0213 59.1311 10.8227Z" fill="white"/>
<path id="Vector_2" d="M29.5167 6.95822L7.34959 15.6788C6.83004 15.8829 6.48791 16.3891 6.48791 16.9531V29.4452C6.48791 36.8489 8.67484 43.9364 12.8122 49.9408C16.9352 55.9249 22.7188 60.4377 29.5373 62.991C29.6888 63.0476 29.8477 63.0759 30.0066 63.0759C30.1656 63.0759 30.3245 63.0476 30.476 62.991C37.2945 60.4377 43.0781 55.9249 47.2011 49.9408C51.3385 43.9364 53.5254 36.8489 53.5254 29.4452V16.9531C53.5254 16.3891 53.1833 15.8834 52.6637 15.6788L30.4966 6.95875C30.1814 6.83431 29.8319 6.83431 29.5167 6.95822ZM50.8221 29.4452C50.8221 43.2544 42.6689 55.2894 30.0066 60.247C17.3439 55.2894 9.19121 43.2544 9.19121 29.4452V17.8882L30.0066 9.69953L50.8221 17.8882V29.4452Z" fill="white"/>
<path id="Vector_3" d="M22.167 23.2235V26.0145H22.015C19.714 26.0145 17.8418 27.9083 17.8418 30.2357V43.6016C17.8418 45.9295 19.714 47.8227 22.015 47.8227H37.9983C40.2992 47.8227 42.1715 45.9295 42.1715 43.6016V30.2357C42.1715 27.9083 40.2992 26.0145 37.9983 26.0145H37.8462V23.2235C37.8462 18.8512 34.3293 15.2938 30.0066 15.2938C25.684 15.2938 22.167 18.8506 22.167 23.2235ZM39.4682 30.2357V43.6016C39.4682 44.4213 38.8087 45.0884 37.9983 45.0884H22.015C21.2045 45.0884 20.5451 44.4213 20.5451 43.6016V30.2357C20.5451 29.4159 21.2045 28.7489 22.015 28.7489H37.9983C38.8087 28.7489 39.4682 29.4159 39.4682 30.2357ZM35.1429 23.2235V26.0145H24.8703V23.2235C24.8703 20.3588 27.1745 18.0282 30.0066 18.0282C32.8387 18.0282 35.1429 20.3588 35.1429 23.2235Z" fill="#2FB67E"/>
<path id="Vector_4" d="M30.0066 31.4421C27.7706 31.4421 25.9516 33.2825 25.9516 35.5437C25.9516 37.3264 27.0815 38.8458 28.6549 39.4103V40.4811C28.6549 41.2362 29.26 41.8483 30.0066 41.8483C30.7526 41.8483 31.3582 41.2362 31.3582 40.4811V39.4103C32.9311 38.8458 34.0615 37.3264 34.0615 35.5437C34.0615 33.2825 32.2426 31.4421 30.0066 31.4421ZM30.0066 36.9109C29.2611 36.9109 28.6549 36.2978 28.6549 35.5437C28.6549 34.7901 29.2611 34.1765 30.0066 34.1765C30.7516 34.1765 31.3582 34.7901 31.3582 35.5437C31.3582 36.2978 30.7516 36.9109 30.0066 36.9109Z" fill="#2FB67E"/>
<path id="Vector_5" d="M44.0148 7.98413C44.3706 7.98413 44.7191 7.8378 44.9704 7.58359C45.2218 7.32777 45.3664 6.9769 45.3664 6.61694C45.3664 6.25752 45.2218 5.90451 44.9704 5.64923C44.7191 5.39502 44.3706 5.24976 44.0148 5.24976C43.6594 5.24976 43.311 5.39502 43.0591 5.64923C42.8083 5.90451 42.6631 6.25592 42.6631 6.61694C42.6631 6.9769 42.8078 7.32938 43.0591 7.58359C43.311 7.8378 43.6594 7.98413 44.0148 7.98413Z" fill="white"/>
</g>
</svg>
