<svg width="164" height="164" viewBox="0 0 164 164" fill="none" xmlns="http://www.w3.org/2000/svg">
<rect width="164" height="164" fill="#E5E5E5"/>
<g id="Circleex" clip-path="url(#clip0)">
<rect width="1920" height="3998" transform="translate(-512 -1664)" fill="#2B2E3D"/>
<rect id="Rectangle 195" x="-512" y="-1716" width="1920" height="4563" fill="#252A3B"/>
<g id="Group 207">
<g id="Group 206">
<circle id="Ellipse 22" cx="82" cy="82" r="82" fill="#C4C4C4" fill-opacity="0.05"/>
<g id="Group 203">
<g id="Group">
<g id="Group_2">
<path id="Vector" d="M113.974 85.1987H107.017C107.726 87.1402 108.113 89.2355 108.113 91.4193V117.713C108.113 118.624 107.955 119.498 107.666 120.311H119.168C123.465 120.311 126.96 116.815 126.96 112.519V98.1848C126.96 91.0243 121.134 85.1987 113.974 85.1987Z" fill="#2FB67E"/>
</g>
</g>
<g id="Group_3">
<g id="Group_4">
<path id="Vector_2" d="M55.8468 91.4196C55.8468 89.2356 56.2342 87.1405 56.9433 85.199H49.9862C42.8256 85.199 37 91.0246 37 98.1852V112.519C37 116.815 40.4953 120.311 44.7917 120.311H56.2936C56.0053 119.498 55.8468 118.624 55.8468 117.714V91.4196Z" fill="#2FB67E"/>
</g>
</g>
<g id="Group_5">
<g id="Group_6">
<path id="Vector_3" d="M89.932 78.4333H74.027C66.8664 78.4333 61.0408 84.259 61.0408 91.4196V117.714C61.0408 119.148 62.2036 120.311 63.638 120.311H100.321C101.755 120.311 102.918 119.148 102.918 117.714V91.4196C102.918 84.259 97.0926 78.4333 89.932 78.4333Z" fill="#2FB67E"/>
</g>
</g>
<g id="Group_7">
<g id="Group_8">
<path id="Vector_4" d="M81.9801 44C73.3685 44 66.3625 51.006 66.3625 59.6177C66.3625 65.459 69.5865 70.5605 74.3477 73.2389C76.606 74.5092 79.2096 75.2352 81.9801 75.2352C84.7506 75.2352 87.3541 74.5092 89.6124 73.2389C94.3738 70.5605 97.5976 65.4588 97.5976 59.6177C97.5976 51.0062 90.5916 44 81.9801 44Z" fill="#2FB67E"/>
</g>
</g>
<g id="Group_9">
<g id="Group_10">
<path id="Vector_5" d="M54.5558 58.5569C48.1154 58.5569 42.876 63.7963 42.876 70.2367C42.876 76.6771 48.1154 81.9166 54.5558 81.9166C56.1895 81.9166 57.7452 81.5782 59.1584 80.9699C61.6017 79.918 63.6163 78.0559 64.8629 75.7234C65.7379 74.0864 66.2357 72.2188 66.2357 70.2367C66.2357 63.7965 60.9962 58.5569 54.5558 58.5569Z" fill="#2FB67E"/>
</g>
</g>
<g id="Group_11">
<g id="Group_12">
<path id="Vector_6" d="M109.404 58.5569C102.963 58.5569 97.7239 63.7963 97.7239 70.2367C97.7239 72.219 98.2216 74.0866 99.0966 75.7234C100.343 78.056 102.358 79.9181 104.801 80.9699C106.214 81.5782 107.77 81.9166 109.404 81.9166C115.844 81.9166 121.084 76.6771 121.084 70.2367C121.084 63.7963 115.844 58.5569 109.404 58.5569Z" fill="#2FB67E"/>
</g>
</g>
</g>
</g>
</g>
</g>
<defs>
<clipPath id="clip0">
<rect width="1920" height="3998" fill="white" transform="translate(-512 -1664)"/>
</clipPath>
</defs>
</svg>
