<svg width="164" height="164" viewBox="0 0 164 164" fill="none" xmlns="http://www.w3.org/2000/svg">
<rect width="164" height="164" fill="#E5E5E5"/>
<g id="Circleex" clip-path="url(#clip0)">
<rect width="1920" height="3998" transform="translate(-1212 -1664)" fill="#2B2E3D"/>
<rect id="Rectangle 195" x="-1212" y="-1716" width="1920" height="4563" fill="#252A3B"/>
<g id="Group 204">
<circle id="Ellipse 23" cx="82" cy="82" r="82" fill="#C4C4C4" fill-opacity="0.05"/>
<g id="Group">
<path id="Vector" d="M126.96 121.689H121.689V68.6265H105.7V121.689H100.429V89.7109H84.6155V121.689H79.3444V79.1687H63.5311V121.689H58.2601V94.982H42.2711V121.689H37V126.96H126.96V121.689Z" fill="#2FB67E"/>
<path id="Vector_2" d="M126.96 58.0844V37H105.7V42.2711H117.962L92.5224 67.5352L71.438 46.4509L37.7725 79.9409L41.4991 83.6676L71.438 53.9046L92.5224 74.9889L121.689 45.9979V58.0844H126.96Z" fill="#2FB67E"/>
</g>
</g>
</g>
<defs>
<clipPath id="clip0">
<rect width="1920" height="3998" fill="white" transform="translate(-1212 -1664)"/>
</clipPath>
</defs>
</svg>
