<svg width="164" height="164" viewBox="0 0 164 164" fill="none" xmlns="http://www.w3.org/2000/svg">
<rect width="164" height="164" fill="#E5E5E5"/>
<g id="Circleex" clip-path="url(#clip0)">
<rect width="1920" height="3998" transform="translate(-862 -1664)" fill="#2B2E3D"/>
<rect id="Rectangle 195" x="-862" y="-1716" width="1920" height="4563" fill="#252A3B"/>
<g id="Group 205">
<circle id="Ellipse 21" cx="82" cy="82" r="82" fill="#C4C4C4" fill-opacity="0.05"/>
<g id="Group">
<path id="Vector" d="M125.152 100.883L123.46 100.037L85.3401 119.097C83.1522 120.205 80.4563 120.205 78.2684 119.097L40.1484 100.037L38.4569 100.883C37.564 101.329 37 102.242 37 103.24C37 104.238 37.564 105.151 38.4569 105.597L80.6256 126.682C81.3675 127.053 82.241 127.053 82.9829 126.682L125.152 105.597C126.044 105.151 126.608 104.238 126.608 103.24C126.608 102.242 126.044 101.329 125.152 100.883Z" fill="#2FB67E"/>
<path id="Vector_2" d="M125.152 88.5836L123.46 87.7379L85.3401 106.798C83.1522 107.906 80.4563 107.906 78.2684 106.798L40.1484 87.7379L38.4569 88.5836C37.564 89.0299 37 89.9425 37 90.9408C37 91.9391 37.564 92.8517 38.4569 93.298L80.6256 114.382C81.3675 114.753 82.241 114.753 82.9829 114.382L125.152 93.298C126.044 92.8517 126.608 91.9391 126.608 90.9408C126.608 89.9425 126.044 89.0299 125.152 88.5836Z" fill="#2FB67E"/>
<path id="Vector_3" d="M58.6267 68.0149L63.8978 77.1448C64.6256 78.4053 66.2375 78.8373 67.4981 78.1094L69.6684 76.8563C70.9844 77.8541 72.398 78.6764 73.8976 79.3161V81.8042C73.8976 83.2598 75.0776 84.4398 76.5331 84.4398H87.0753C88.5308 84.4398 89.7109 83.2598 89.7109 81.8042V79.3161C91.2105 78.6764 92.624 77.8541 93.94 76.8563L96.1103 78.1094C97.3708 78.8371 98.9827 78.4053 99.7105 77.1448L104.982 68.0149C105.709 66.7544 105.277 65.1425 104.017 64.4148L101.856 63.1669C101.958 62.3462 102.01 61.5281 102.01 60.7199C102.01 59.9117 101.958 59.0936 101.856 58.2729L104.017 57.025C105.278 56.2973 105.709 54.6854 104.982 53.4249L99.7106 44.295C98.9829 43.0345 97.371 42.6025 96.1105 43.3304L93.94 44.5833C92.6244 43.5857 91.2105 42.7632 89.7109 42.1235V39.6355C89.7109 38.18 88.5308 37 87.0753 37H76.5331C75.0776 37 73.8976 38.18 73.8976 39.6355V42.1235C72.398 42.7632 70.9841 43.5857 69.6684 44.5833L67.4981 43.3302C66.2376 42.6025 64.6257 43.0343 63.898 44.2948L58.6269 53.4247C57.8991 54.6852 58.331 56.2971 59.5915 57.0249L61.7527 58.2727C61.65 59.0936 61.5984 59.9117 61.5984 60.7199C61.5984 61.5281 61.65 62.3462 61.7525 63.1669L59.5913 64.4148C58.3308 65.1425 57.899 66.7544 58.6267 68.0149ZM81.8042 52.8133C86.1639 52.8133 89.7109 56.3602 89.7109 60.7199C89.7109 65.0796 86.1639 68.6265 81.8042 68.6265C77.4445 68.6265 73.8976 65.0796 73.8976 60.7199C73.8976 56.3602 77.4445 52.8133 81.8042 52.8133Z" fill="#2FB67E"/>
<path id="Vector_4" d="M38.4569 80.9988L80.6256 102.083C81.3675 102.454 82.241 102.454 82.9829 102.083L125.152 80.9988C126.044 80.5525 126.608 79.6399 126.608 78.6416C126.608 77.6433 126.044 76.7307 125.152 76.2844L110.303 68.8602C110.129 69.4729 109.879 70.0741 109.547 70.6501L104.276 79.7802C102.868 82.2187 100.243 83.734 97.4258 83.734C97.4256 83.734 97.4258 83.734 97.4256 83.734C96.544 83.734 95.6697 83.5852 94.8405 83.2981C94.14 86.946 90.9245 89.7109 87.0753 89.7109H76.5332C72.684 89.7109 69.4685 86.946 68.7681 83.2981C67.939 83.5854 67.0647 83.734 66.1828 83.734C63.3655 83.734 60.7406 82.2189 59.3327 79.7798L54.0618 70.6506C53.7322 70.0799 53.4783 69.4797 53.3014 68.8623L38.4569 76.2844C37.564 76.7307 37 77.6433 37 78.6416C37 79.6399 37.564 80.5525 38.4569 80.9988Z" fill="#2FB67E"/>
</g>
</g>
</g>
<defs>
<clipPath id="clip0">
<rect width="1920" height="3998" fill="white" transform="translate(-862 -1664)"/>
</clipPath>
</defs>
</svg>
