<svg width="18" height="21" viewBox="0 0 18 21" fill="none" xmlns="http://www.w3.org/2000/svg">
<path id="&#239;&#129;&#152;" d="M9 1.53125C4.18359 1.53125 0.28125 5.46875 0.28125 10.25C0.28125 15.0664 4.18359 18.9688 9 18.9688C13.7812 18.9688 17.7188 15.0664 17.7188 10.25C17.7188 5.46875 13.7812 1.53125 9 1.53125ZM9 3.21875C12.8672 3.21875 16.0312 6.38281 16.0312 10.25C16.0312 14.1523 12.8672 17.2812 9 17.2812C5.09766 17.2812 1.96875 14.1523 1.96875 10.25C1.96875 6.38281 5.09766 3.21875 9 3.21875ZM13.9219 7.82422L13.1133 7.01562C12.9727 6.83984 12.6914 6.83984 12.5156 7.01562L7.55859 11.9375L5.44922 9.82812C5.27344 9.65234 5.02734 9.65234 4.85156 9.82812L4.04297 10.6016C3.90234 10.7773 3.90234 11.0586 4.04297 11.1992L7.24219 14.4336C7.41797 14.6094 7.66406 14.6094 7.83984 14.4336L13.9219 8.42188C14.0625 8.24609 14.0625 7.96484 13.9219 7.82422Z" fill="#2FB67E"/>
</svg>
