<svg width="24" height="25" viewBox="0 0 24 25" fill="none" xmlns="http://www.w3.org/2000/svg">
<g clip-path="url(#clip0)">
<path d="M20.8841 22.8066C18.8613 24.1083 13.6676 24.2125 12.0822 24.2125H10.9341C6.94316 24.2125 2.4055 23.6918 1.58545 22.2338C0.382694 20.2031 0.546705 17.86 2.02281 15.5689C2.13215 15.4127 2.07748 15.1523 1.91347 15.0482C1.74946 14.9441 1.4761 14.9961 1.36676 15.1523C-0.273353 17.5996 -0.437364 20.3072 0.874729 22.5983C2.07748 24.7853 8.30992 24.9935 10.9341 24.9935H12.1369H12.1915C14.269 24.9935 19.244 24.8373 21.3762 23.4314C21.5402 23.3273 21.5949 23.067 21.4855 22.9107C21.3215 22.7545 21.1028 22.7025 20.8841 22.8066Z" fill="white"/>
<path d="M3.28023 13.9027C3.38957 13.9027 3.49891 13.8506 3.55358 13.7985C3.77226 13.5902 4.04562 13.382 4.2643 13.1737C5.7404 11.924 7.10717 10.8305 8.36459 9.89328C9.12998 9.32051 9.29399 8.27911 8.74728 7.6022C8.25525 6.97736 7.65387 6.5608 7.10717 6.14424C6.56046 5.72768 6.1231 5.41526 6.01376 5.05078C5.84974 4.63422 5.84974 4.26973 6.01376 4.00938C6.23244 3.69696 6.77914 3.38454 8.14591 3.2804L9.02064 5.41526C9.07531 5.62354 9.34866 5.72768 9.51267 5.62354C9.73135 5.57147 9.84069 5.31112 9.73135 5.15491L8.09124 1.24967C9.23932 0.937253 12.5742 0.260344 15.3624 2.18693L12.7382 6.40459C12.6289 6.5608 12.6836 6.82115 12.9022 6.92529C12.9569 6.97736 13.0116 6.97736 13.1209 6.97736C13.2303 6.97736 13.3943 6.92529 13.4489 6.76908L16.2371 2.29107C16.3465 2.13486 16.2918 1.92658 16.1278 1.82244C12.4102 -1.19761 7.5992 0.468623 7.43519 0.520693C7.32585 0.572763 7.27118 0.624833 7.21651 0.728973C7.16184 0.833113 7.16184 0.937253 7.21651 1.04139L7.81788 2.49935C6.56046 2.60349 5.7404 2.96798 5.30304 3.54075C4.97502 4.00938 4.92034 4.63422 5.1937 5.31112C5.41238 5.83182 5.95908 6.24838 6.56046 6.71701C7.0525 7.0815 7.5992 7.49806 8.03657 8.01876C8.30992 8.38325 8.25525 8.95602 7.81788 9.26844C6.61513 10.2057 5.1937 11.2992 3.71759 12.5488C3.44424 12.7571 3.17089 13.0175 2.95221 13.2257C2.78819 13.382 2.78819 13.5902 2.95221 13.7464C3.06155 13.8506 3.17089 13.9027 3.28023 13.9027Z" fill="white"/>
<path d="M19.2987 12.5488C18.2053 11.6116 17.1665 10.7785 16.1825 10.0495C15.5264 9.52879 15.3624 8.6436 15.7998 7.9667C16.0731 7.55014 16.5652 7.02944 17.4399 6.14425C17.8773 5.72769 18.0959 5.31113 18.0959 4.89457C18.0959 4.53008 17.8773 4.16559 17.4946 3.90524C17.3306 3.8011 17.0572 3.8011 16.9479 3.95731C16.8385 4.11352 16.8385 4.37387 17.0025 4.47801C17.2212 4.63422 17.3306 4.79043 17.3306 4.94664C17.3306 5.15492 17.2212 5.3632 16.9479 5.62355C15.9638 6.50874 15.4718 7.08151 15.1984 7.55014C14.9797 7.86256 14.8704 8.27912 14.8704 8.64361C13.449 9.52879 11.4261 9.21637 10.6061 9.00809C10.3874 8.95602 10.1687 9.11223 10.114 9.26844C10.0594 9.42465 10.2234 9.685 10.3874 9.73707C10.8248 9.84121 11.5902 9.94535 12.4102 9.94535C13.2303 9.94535 14.105 9.84121 14.9251 9.42465C15.0891 9.89328 15.3624 10.2578 15.7451 10.5702C16.7292 11.2992 17.7133 12.1844 18.8067 13.0695C21.7042 15.4648 22.8523 18.3807 22.0869 20.9842C22.0322 21.1925 22.1416 21.4007 22.3602 21.4528C22.4149 21.4528 22.4149 21.4528 22.4696 21.4528C22.6336 21.4528 22.7976 21.3487 22.8523 21.1925C23.6723 18.3286 22.4149 15.1523 19.2987 12.5488Z" fill="white"/>
<path d="M11.5355 13.1216C11.3168 13.1216 11.1528 13.2778 11.1528 13.4861V13.9547C10.1687 14.1109 9.458 14.892 9.458 15.7772C9.458 16.6624 10.0047 17.6517 11.5902 17.6517C12.6836 17.6517 12.9022 18.2765 12.9022 18.7452C12.9022 19.37 12.3009 19.8386 11.5902 19.8386C11.0434 19.8386 10.5514 19.5262 10.3327 19.1096C10.2234 18.9014 10.0047 18.8493 9.78602 18.9014C9.56734 19.0055 9.51267 19.2138 9.56734 19.4221C9.84069 20.0469 10.4421 20.4635 11.1528 20.5676V21.0362C11.1528 21.2445 11.3168 21.4007 11.5355 21.4007C11.7542 21.4007 11.9182 21.2445 11.9182 21.0362V20.5676C12.9022 20.4114 13.613 19.6303 13.613 18.7452C13.613 17.86 13.0663 16.8706 11.4808 16.8706C10.3874 16.8706 10.1687 16.2458 10.1687 15.7772C10.1687 15.1523 10.7701 14.6837 11.4808 14.6837C12.0275 14.6837 12.5196 14.9961 12.7382 15.4127C12.8476 15.621 13.0663 15.673 13.2849 15.621C13.5036 15.5168 13.5583 15.3085 13.5036 15.1003C13.2303 14.4754 12.6289 14.0589 11.9182 13.9547V13.5382C11.9182 13.3299 11.7542 13.1216 11.5355 13.1216Z" fill="#2FB67E"/>
</g>
<defs>
<clipPath id="clip0">
<rect width="23.071" height="24.9935" fill="white"/>
</clipPath>
</defs>
</svg>
