<svg width="35" height="28" viewBox="0 0 35 28" fill="none" xmlns="http://www.w3.org/2000/svg">
<path d="M14.6739 1.47463C14.4951 1.47463 14.3611 1.60869 14.3611 1.78743V2.14492C13.6461 2.27898 13.1099 2.8599 13.1099 3.57487C13.1099 4.28984 13.5121 5.0495 14.7186 5.0495C15.3442 5.0495 15.657 5.31762 15.657 5.85385C15.657 6.30071 15.2548 6.6582 14.7186 6.6582C14.3164 6.6582 13.9589 6.43477 13.8249 6.12197C13.7355 5.94322 13.5567 5.89854 13.378 5.94322C13.1993 6.0326 13.1546 6.21134 13.1993 6.39008C13.378 6.88163 13.8249 7.19443 14.3611 7.2838V7.64129C14.3611 7.82003 14.4951 7.95409 14.6739 7.95409C14.8526 7.95409 14.9867 7.82003 14.9867 7.64129V7.2838C15.7017 7.14974 16.2379 6.56883 16.2379 5.85385C16.2379 5.13888 15.8357 4.37922 14.6292 4.37922C14.0036 4.37922 13.6908 4.1111 13.6908 3.57487C13.6908 3.12801 14.093 2.72584 14.6292 2.72584C15.0314 2.72584 15.3889 2.94927 15.5229 3.26207C15.6123 3.44081 15.791 3.4855 15.9698 3.44081C16.1485 3.35144 16.1932 3.1727 16.1485 2.99395C15.9698 2.50241 15.5229 2.18961 14.9867 2.10023V1.78743C15.0314 1.60869 14.8526 1.47463 14.6739 1.47463Z" fill="#2FB67E"/>
<path d="M10.6522 5.22825C10.6522 5.04951 10.6075 4.91545 10.6075 4.73671C10.6075 2.50241 12.4396 0.670289 14.6739 0.670289C15.657 0.670289 16.5954 1.02778 17.355 1.65338C17.4891 1.78744 17.7125 1.74275 17.8019 1.60869C17.936 1.47464 17.8913 1.25121 17.7572 1.16183C16.9082 0.402173 15.8357 0 14.6739 0C12.0821 0 9.93718 2.10024 9.93718 4.73671C9.93718 4.91545 9.93718 5.13888 9.98187 5.31762C9.98187 5.49637 10.1606 5.58574 10.2947 5.58574H10.3394C10.5181 5.54105 10.6522 5.40699 10.6522 5.22825Z" fill="#2FB67E"/>
<path d="M18.785 4.7367C18.785 6.97099 16.9529 8.80312 14.7186 8.80312C13.2439 8.80312 11.8587 7.99877 11.1437 6.70288C11.0543 6.52414 10.8756 6.47945 10.6968 6.56882C10.5181 6.65819 10.4734 6.83694 10.5628 7.01568C11.4118 8.535 12.9758 9.47341 14.7186 9.47341C17.3104 9.47341 19.4553 7.37317 19.4553 4.7367C19.4553 3.97704 19.2765 3.26206 18.919 2.59178C18.8297 2.41303 18.6509 2.36835 18.4722 2.45772C18.2934 2.54709 18.2488 2.72583 18.3381 2.90458C18.6062 3.44081 18.785 4.06641 18.785 4.7367Z" fill="#2FB67E"/>
<path d="M34.291 26.9456H1V5.49637" stroke="white" stroke-width="0.8" stroke-miterlimit="10"/>
<path d="M30.8055 9.42873V7.10506H28.4818" stroke="white" stroke-width="0.8" stroke-miterlimit="10" stroke-linecap="square"/>
<path d="M3.05554 22.9686L14.5845 11.3949L20.5724 17.3828L30.1799 7.77536" stroke="white" stroke-width="0.8" stroke-miterlimit="10"/>
<path d="M5.55797 23.9516V24.6666" stroke="white" stroke-width="0.8" stroke-miterlimit="10" stroke-linecap="square"/>
<path d="M8.55191 21.4492V24.6666" stroke="white" stroke-width="0.8" stroke-miterlimit="10" stroke-linecap="square"/>
<path d="M11.5906 18.3659V24.6666" stroke="white" stroke-width="0.8" stroke-miterlimit="10" stroke-linecap="square"/>
<path d="M14.5845 15.7741V24.6666" stroke="white" stroke-width="0.8" stroke-miterlimit="10" stroke-linecap="square"/>
<path d="M17.5785 18.3659V24.6666" stroke="white" stroke-width="0.8" stroke-miterlimit="10" stroke-linecap="square"/>
<path d="M20.6171 20.3321V24.6666" stroke="white" stroke-width="0.8" stroke-miterlimit="10" stroke-linecap="square"/>
<path d="M23.6111 18.3659V24.6666" stroke="white" stroke-width="0.8" stroke-miterlimit="10" stroke-linecap="square"/>
<path d="M26.6497 15.7741V24.6666" stroke="white" stroke-width="0.8" stroke-miterlimit="10" stroke-linecap="square"/>
<path d="M29.6437 12.5121V24.6666" stroke="white" stroke-width="0.8" stroke-miterlimit="10" stroke-linecap="square"/>
</svg>
