<svg width="19" height="12" viewBox="0 0 19 12" fill="none" xmlns="http://www.w3.org/2000/svg">
<path d="M4.55957 9H3.65137V2.97949L1.83008 3.64844V2.82812L4.41797 1.85645H4.55957V9ZM11.6641 5.96777C11.6641 7.02572 11.4834 7.81185 11.1221 8.32617C10.7607 8.84049 10.196 9.09766 9.42773 9.09766C8.66927 9.09766 8.10775 8.84701 7.74316 8.3457C7.37858 7.84115 7.18978 7.08919 7.17676 6.08984V4.88379C7.17676 3.83887 7.35742 3.0625 7.71875 2.55469C8.08008 2.04688 8.64648 1.79297 9.41797 1.79297C10.1829 1.79297 10.7461 2.03874 11.1074 2.53027C11.4688 3.01855 11.6543 3.77376 11.6641 4.7959V5.96777ZM10.7607 4.73242C10.7607 3.96745 10.6533 3.41081 10.4385 3.0625C10.2236 2.71094 9.88346 2.53516 9.41797 2.53516C8.95573 2.53516 8.61882 2.70931 8.40723 3.05762C8.19564 3.40592 8.08659 3.94141 8.08008 4.66406V6.10938C8.08008 6.8776 8.19076 7.44564 8.41211 7.81348C8.63672 8.17806 8.97526 8.36035 9.42773 8.36035C9.8737 8.36035 10.2041 8.18783 10.4189 7.84277C10.637 7.49772 10.751 6.9541 10.7607 6.21191V4.73242ZM14.6865 5.64551L15.8584 3.7168H16.9131L15.1846 6.3291L16.9668 9H15.9219L14.7012 7.02246L13.4805 9H12.4307L14.2129 6.3291L12.4844 3.7168H13.5293L14.6865 5.64551Z" fill="#2FB67E"/>
<rect x="0.25" y="0.25" width="18.5" height="11.5" rx="1.75" stroke="#ECB22D" stroke-width="0.5"/>
</svg>
