<svg width="25" height="14" viewBox="0 0 25 14" fill="none" xmlns="http://www.w3.org/2000/svg">
<path d="M6.27148 11H5.18164V3.77539L2.99609 4.57812V3.59375L6.10156 2.42773H6.27148V11ZM14.7969 7.36133C14.7969 8.63086 14.5801 9.57422 14.1465 10.1914C13.7129 10.8086 13.0352 11.1172 12.1133 11.1172C11.2031 11.1172 10.5293 10.8164 10.0918 10.2148C9.6543 9.60938 9.42773 8.70703 9.41211 7.50781V6.06055C9.41211 4.80664 9.62891 3.875 10.0625 3.26562C10.4961 2.65625 11.1758 2.35156 12.1016 2.35156C13.0195 2.35156 13.6953 2.64648 14.1289 3.23633C14.5625 3.82227 14.7852 4.72852 14.7969 5.95508V7.36133ZM13.7129 5.87891C13.7129 4.96094 13.584 4.29297 13.3262 3.875C13.0684 3.45312 12.6602 3.24219 12.1016 3.24219C11.5469 3.24219 11.1426 3.45117 10.8887 3.86914C10.6348 4.28711 10.5039 4.92969 10.4961 5.79688V7.53125C10.4961 8.45312 10.6289 9.13477 10.8945 9.57617C11.1641 10.0137 11.5703 10.2324 12.1133 10.2324C12.6484 10.2324 13.0449 10.0254 13.3027 9.61133C13.5645 9.19727 13.7012 8.54492 13.7129 7.6543V5.87891ZM18.4238 6.97461L19.8301 4.66016H21.0957L19.0215 7.79492L21.1602 11H19.9062L18.4414 8.62695L16.9766 11H15.7168L17.8555 7.79492L15.7812 4.66016H17.0352L18.4238 6.97461Z" fill="#2FB67E"/>
<rect x="0.25" y="0.25" width="24.5" height="13.5" rx="1.75" stroke="#ECB22D" stroke-width="0.5"/>
</svg>
